<?xml version="1.0" encoding="UTF-8" standalone="no"?>
<!-- Created with Inkscape (http://www.inkscape.org/) -->

<svg
   xmlns:dc="http://purl.org/dc/elements/1.1/"
   xmlns:cc="http://creativecommons.org/ns#"
   xmlns:rdf="http://www.w3.org/1999/02/22-rdf-syntax-ns#"
   xmlns:svg="http://www.w3.org/2000/svg"
   xmlns="http://www.w3.org/2000/svg"
   xmlns:xlink="http://www.w3.org/1999/xlink"
   version="1.0"
   width="1250"
   height="152"
   id="svg2">
  <metadata
     id="metadata7542">
    <rdf:RDF>
      <cc:Work
         rdf:about="">
        <dc:format>image/svg+xml</dc:format>
        <dc:type
           rdf:resource="http://purl.org/dc/dcmitype/StillImage" />
        <dc:title></dc:title>
      </cc:Work>
    </rdf:RDF>
  </metadata>
  <defs
     id="defs4" />
  <rect
     width="23"
     height="149"
     rx="2.4000001"
     ry="4.8000002"
     x="937.5"
     y="1.5"
     id="use3227-0"
     style="fill:#ffcc00;fill-opacity:1;stroke:#000000;stroke-width:0.97625762;stroke-opacity:1" />
  <rect
     width="23"
     height="149"
     rx="2.4000001"
     ry="4.8000002"
     x="913.5"
     y="1.5"
     id="use3227-4"
     style="fill:#ffcc00;fill-opacity:1;stroke:#000000;stroke-width:0.97625762;stroke-opacity:1" />
  <rect
     width="23"
     height="149"
     rx="2.4000001"
     ry="4.8000002"
     x="529.5"
     y="1.5"
     id="use3227-7"
     style="fill:#ffcc00;fill-opacity:1;stroke:#000000;stroke-width:0.97625762;stroke-opacity:1" />
  <rect
     width="23"
     height="149"
     rx="2.4000001"
     ry="4.8000002"
     x="505.73779"
     y="1.5"
     id="use3227-1"
     style="fill:#ffcc00;fill-opacity:1;stroke:#000000;stroke-width:0.97625762;stroke-opacity:1" />
  <rect
     width="23"
     height="149"
     rx="2.4000001"
     ry="4.8000002"
     x="1.4999998"
     y="1.5118709"
     id="rect1872"
     style="fill:#ffffff;fill-opacity:1;stroke:#000000;stroke-width:0.97625762;stroke-opacity:1" />
  <use
     transform="translate(24,0)"
     id="use2768"
     x="0"
     y="0"
     width="744.09448"
     height="1052.3622"
     xlink:href="#rect1872" />
  <use
     transform="translate(48,0)"
     id="use3185"
     x="0"
     y="0"
     width="744.09448"
     height="1052.3622"
     xlink:href="#rect1872" />
  <use
     transform="translate(72,0)"
     id="use3187"
     x="0"
     y="0"
     width="744.09448"
     height="1052.3622"
     xlink:href="#rect1872" />
  <use
     transform="translate(96,0)"
     id="use3189"
     x="0"
     y="0"
     width="744.09448"
     height="1052.3622"
     xlink:href="#rect1872" />
  <use
     transform="translate(120,0)"
     id="use3191"
     x="0"
     y="0"
     width="744.09448"
     height="1052.3622"
     xlink:href="#rect1872" />
  <use
     transform="translate(144,0)"
     id="use3193"
     x="0"
     y="0"
     width="744.09448"
     height="1052.3622"
     xlink:href="#rect1872" />
  <use
     transform="translate(168,0)"
     id="use3195"
     x="0"
     y="0"
     width="744.09448"
     height="1052.3622"
     xlink:href="#rect1872" />
  <use
     transform="translate(192,0)"
     id="use3197"
     x="0"
     y="0"
     width="744.09448"
     height="1052.3622"
     xlink:href="#rect1872" />
  <use
     transform="translate(216,0)"
     id="use3199"
     x="0"
     y="0"
     width="744.09448"
     height="1052.3622"
     xlink:href="#rect1872" />
  <use
     transform="translate(240,0)"
     id="use3201"
     x="0"
     y="0"
     width="744.09448"
     height="1052.3622"
     xlink:href="#rect1872" />
  <use
     transform="translate(264,0)"
     id="use3203"
     x="0"
     y="0"
     width="744.09448"
     height="1052.3622"
     xlink:href="#rect1872" />
  <use
     transform="translate(288,0)"
     id="use3205"
     x="0"
     y="0"
     width="744.09448"
     height="1052.3622"
     xlink:href="#rect1872" />
  <use
     transform="translate(312,0)"
     id="use3207"
     x="0"
     y="0"
     width="744.09448"
     height="1052.3622"
     xlink:href="#rect1872" />
  <use
     transform="translate(336,0)"
     id="use3209"
     x="0"
     y="0"
     width="744.09448"
     height="1052.3622"
     xlink:href="#rect1872" />
  <use
     transform="translate(360,0)"
     id="use3211"
     x="0"
     y="0"
     width="744.09448"
     height="1052.3622"
     xlink:href="#rect1872" />
  <use
     transform="translate(384,0)"
     id="use3213"
     x="0"
     y="0"
     width="744.09448"
     height="1052.3622"
     xlink:href="#rect1872" />
  <use
     transform="translate(408,0)"
     id="use3215"
     x="0"
     y="0"
     width="744.09448"
     height="1052.3622"
     xlink:href="#rect1872" />
  <use
     transform="translate(432,0)"
     id="use3217"
     x="0"
     y="0"
     width="744.09448"
     height="1052.3622"
     xlink:href="#rect1872" />
  <use
     transform="translate(456,0)"
     id="use3219"
     x="0"
     y="0"
     width="744.09448"
     height="1052.3622"
     xlink:href="#rect1872" />
  <use
     transform="translate(480,0)"
     id="use3221"
     x="0"
     y="0"
     width="744.09448"
     height="1052.3622"
     xlink:href="#rect1872" />
  <rect
     width="23"
     height="149"
     rx="2.4000001"
     ry="4.8000002"
     x="553.5"
     y="1.5118709"
     id="use3227"
     style="fill:#99cc00;fill-opacity:1;stroke:#000000;stroke-width:0.97625762;stroke-opacity:1" />
  <rect
     width="23"
     height="149"
     rx="2.4000001"
     ry="4.8000002"
     x="577.5"
     y="1.5118709"
     id="use3229"
     style="fill:#99cc00;fill-opacity:1;stroke:#000000;stroke-width:0.97625762;stroke-opacity:1" />
  <rect
     width="23"
     height="149"
     rx="2.4000001"
     ry="4.8000002"
     x="601.5"
     y="1.5118709"
     id="use3231"
     style="fill:#99cc00;fill-opacity:1;stroke:#000000;stroke-width:0.97625762;stroke-opacity:1" />
  <rect
     width="23"
     height="149"
     rx="2.4000001"
     ry="4.8000002"
     x="625.5"
     y="1.5118709"
     id="use3233"
     style="fill:#99cc00;fill-opacity:1;stroke:#000000;stroke-width:0.97625762;stroke-opacity:1" />
  <rect
     width="23"
     height="149"
     rx="2.4000001"
     ry="4.8000002"
     x="649.5"
     y="1.5118709"
     id="use3235"
     style="fill:#99cc00;fill-opacity:1;stroke:#000000;stroke-width:0.97625762;stroke-opacity:1" />
  <rect
     width="23"
     height="149"
     rx="2.4000001"
     ry="4.8000002"
     x="673.5"
     y="1.5118709"
     id="use3237"
     style="fill:#99cc00;fill-opacity:1;stroke:#000000;stroke-width:0.97625762;stroke-opacity:1" />
  <rect
     width="23"
     height="149"
     rx="2.4000001"
     ry="4.8000002"
     x="697.5"
     y="1.5118709"
     id="use3239"
     style="fill:#99cc00;fill-opacity:1;stroke:#000000;stroke-width:0.97625762;stroke-opacity:1" />
  <rect
     width="23"
     height="149"
     rx="2.4000001"
     ry="4.8000002"
     x="721.5"
     y="1.5118709"
     id="use3241"
     style="fill:#99cc00;fill-opacity:1;stroke:#000000;stroke-width:0.97625762;stroke-opacity:1" />
  <rect
     width="23"
     height="149"
     rx="2.4000001"
     ry="4.8000002"
     x="745.5"
     y="1.5118709"
     id="use3243"
     style="fill:#99cc00;fill-opacity:1;stroke:#000000;stroke-width:0.97625762;stroke-opacity:1" />
  <rect
     width="23"
     height="149"
     rx="2.4000001"
     ry="4.8000002"
     x="769.5"
     y="1.5118709"
     id="use3245"
     style="fill:#99cc00;fill-opacity:1;stroke:#000000;stroke-width:0.97625762;stroke-opacity:1" />
  <rect
     width="23"
     height="149"
     rx="2.4000001"
     ry="4.8000002"
     x="793.5"
     y="1.5118709"
     id="use3247"
     style="fill:#99cc00;fill-opacity:1;stroke:#000000;stroke-width:0.97625762;stroke-opacity:1" />
  <rect
     width="23"
     height="149"
     rx="2.4000001"
     ry="4.8000002"
     x="817.5"
     y="1.5118709"
     id="use3249"
     style="fill:#99cc00;fill-opacity:1;stroke:#000000;stroke-width:0.97625762;stroke-opacity:1" />
  <rect
     width="23"
     height="149"
     rx="2.4000001"
     ry="4.8000002"
     x="841.5"
     y="1.5118709"
     id="use3251"
     style="fill:#99cc00;fill-opacity:1;stroke:#000000;stroke-width:0.97625762;stroke-opacity:1" />
  <rect
     width="23"
     height="149"
     rx="2.4000001"
     ry="4.8000002"
     x="865.5"
     y="1.5118709"
     id="use3253"
     style="fill:#99cc00;fill-opacity:1;stroke:#000000;stroke-width:0.97625762;stroke-opacity:1" />
  <rect
     width="23"
     height="149"
     rx="2.4000001"
     ry="4.8000002"
     x="889.5"
     y="1.5118709"
     id="use3255"
     style="fill:#99cc00;fill-opacity:1;stroke:#000000;stroke-width:0.97625762;stroke-opacity:1" />
  <use
     transform="translate(960,0)"
     id="use3261"
     x="0"
     y="0"
     width="744.09448"
     height="1052.3622"
     xlink:href="#rect1872" />
  <use
     transform="translate(984,0)"
     id="use3263"
     x="0"
     y="0"
     width="744.09448"
     height="1052.3622"
     xlink:href="#rect1872" />
  <use
     transform="translate(1008,0)"
     id="use3265"
     x="0"
     y="0"
     width="744.09448"
     height="1052.3622"
     xlink:href="#rect1872" />
  <use
     transform="translate(1032,0)"
     id="use3267"
     x="0"
     y="0"
     width="744.09448"
     height="1052.3622"
     xlink:href="#rect1872" />
  <use
     transform="translate(1056,0)"
     id="use3269"
     x="0"
     y="0"
     width="744.09448"
     height="1052.3622"
     xlink:href="#rect1872" />
  <use
     transform="translate(1080,0)"
     id="use3271"
     x="0"
     y="0"
     width="744.09448"
     height="1052.3622"
     xlink:href="#rect1872" />
  <use
     transform="translate(1104,0)"
     id="use3273"
     x="0"
     y="0"
     width="744.09448"
     height="1052.3622"
     xlink:href="#rect1872" />
  <use
     transform="translate(1128,0)"
     id="use3275"
     x="0"
     y="0"
     width="744.09448"
     height="1052.3622"
     xlink:href="#rect1872" />
  <use
     transform="translate(1152,0)"
     id="use3277"
     x="0"
     y="0"
     width="744.09448"
     height="1052.3622"
     xlink:href="#rect1872" />
  <use
     transform="translate(1176,0)"
     id="use3279"
     x="0"
     y="0"
     width="744.09448"
     height="1052.3622"
     xlink:href="#rect1872" />
  <use
     transform="translate(1200,0)"
     id="use3281"
     x="0"
     y="0"
     width="744.09448"
     height="1052.3622"
     xlink:href="#rect1872" />
  <use
     transform="translate(1224,0)"
     id="use3283"
     x="0"
     y="0"
     width="744.09448"
     height="1052.3622"
     xlink:href="#rect1872" />
  <rect
     width="8.5374079"
     height="98.537407"
     rx="1"
     ry="1"
     x="20.743168"
     y="1.7312964"
     id="rect3340"
     style="fill:#000000;fill-opacity:1;stroke:#000000;stroke-width:1.46259189;stroke-opacity:1" />
  <use
     transform="translate(48,0)"
     id="use4120"
     x="0"
     y="0"
     width="1247.9763"
     height="149.97626"
     xlink:href="#rect3340" />
  <use
     transform="translate(72,0)"
     id="use4122"
     x="0"
     y="0"
     width="1247.9763"
     height="149.97626"
     xlink:href="#rect3340" />
  <use
     transform="translate(120,0)"
     id="use4126"
     x="0"
     y="0"
     width="1247.9763"
     height="149.97626"
     xlink:href="#rect3340" />
  <use
     transform="translate(144,0)"
     id="use4128"
     x="0"
     y="0"
     width="1247.9763"
     height="149.97626"
     xlink:href="#rect3340" />
  <use
     transform="translate(168,0)"
     id="use4130"
     x="0"
     y="0"
     width="1247.9763"
     height="149.97626"
     xlink:href="#rect3340" />
  <use
     transform="translate(216,0)"
     id="use4134"
     x="0"
     y="0"
     width="1247.9763"
     height="149.97626"
     xlink:href="#rect3340" />
  <use
     transform="translate(240,0)"
     id="use4136"
     x="0"
     y="0"
     width="1247.9763"
     height="149.97626"
     xlink:href="#rect3340" />
  <use
     transform="translate(288,0)"
     id="use4140"
     x="0"
     y="0"
     width="1247.9763"
     height="149.97626"
     xlink:href="#rect3340" />
  <use
     transform="translate(312,0)"
     id="use4142"
     x="0"
     y="0"
     width="1247.9763"
     height="149.97626"
     xlink:href="#rect3340" />
  <use
     transform="translate(336,0)"
     id="use4144"
     x="0"
     y="0"
     width="1247.9763"
     height="149.97626"
     xlink:href="#rect3340" />
  <use
     transform="translate(384,0)"
     id="use4148"
     x="0"
     y="0"
     width="1247.9763"
     height="149.97626"
     xlink:href="#rect3340" />
  <use
     transform="translate(408,0)"
     id="use4150"
     x="0"
     y="0"
     width="1247.9763"
     height="149.97626"
     xlink:href="#rect3340" />
  <use
     transform="translate(456,0)"
     id="use4154"
     x="0"
     y="0"
     width="1247.9763"
     height="149.97626"
     xlink:href="#rect3340" />
  <use
     transform="translate(480,0)"
     id="use4156"
     x="0"
     y="0"
     width="1247.9763"
     height="149.97626"
     xlink:href="#rect3340" />
  <use
     transform="translate(504,0)"
     id="use4158"
     x="0"
     y="0"
     width="1247.9763"
     height="149.97626"
     xlink:href="#rect3340" />
  <use
     transform="translate(552,0)"
     id="use4162"
     x="0"
     y="0"
     width="1247.9763"
     height="149.97626"
     xlink:href="#rect3340" />
  <use
     transform="translate(576,0)"
     id="use4164"
     x="0"
     y="0"
     width="1247.9763"
     height="149.97626"
     xlink:href="#rect3340" />
  <use
     transform="translate(624,0)"
     id="use4168"
     x="0"
     y="0"
     width="1247.9763"
     height="149.97626"
     xlink:href="#rect3340" />
  <use
     transform="translate(648,0)"
     id="use4170"
     x="0"
     y="0"
     width="1247.9763"
     height="149.97626"
     xlink:href="#rect3340" />
  <use
     transform="translate(672,0)"
     id="use4172"
     x="0"
     y="0"
     width="1247.9763"
     height="149.97626"
     xlink:href="#rect3340" />
  <use
     transform="translate(720,0)"
     id="use4176"
     x="0"
     y="0"
     width="1247.9763"
     height="149.97626"
     xlink:href="#rect3340" />
  <use
     transform="translate(744,0)"
     id="use4178"
     x="0"
     y="0"
     width="1247.9763"
     height="149.97626"
     xlink:href="#rect3340" />
  <use
     transform="translate(792,0)"
     id="use4182"
     x="0"
     y="0"
     width="1247.9763"
     height="149.97626"
     xlink:href="#rect3340" />
  <use
     transform="translate(816,0)"
     id="use4184"
     x="0"
     y="0"
     width="1247.9763"
     height="149.97626"
     xlink:href="#rect3340" />
  <use
     transform="translate(840,0)"
     id="use4186"
     x="0"
     y="0"
     width="1247.9763"
     height="149.97626"
     xlink:href="#rect3340" />
  <use
     transform="translate(888,0)"
     id="use4190"
     x="0"
     y="0"
     width="1247.9763"
     height="149.97626"
     xlink:href="#rect3340" />
  <use
     transform="translate(912,0)"
     id="use4192"
     x="0"
     y="0"
     width="1247.9763"
     height="149.97626"
     xlink:href="#rect3340" />
  <use
     transform="translate(960,0)"
     id="use4196"
     x="0"
     y="0"
     width="1247.9763"
     height="149.97626"
     xlink:href="#rect3340" />
  <use
     transform="translate(984,0)"
     id="use4198"
     x="0"
     y="0"
     width="1247.9763"
     height="149.97626"
     xlink:href="#rect3340" />
  <use
     transform="translate(1008,0)"
     id="use4200"
     x="0"
     y="0"
     width="1247.9763"
     height="149.97626"
     xlink:href="#rect3340" />
  <use
     transform="translate(1056,0)"
     id="use4204"
     x="0"
     y="0"
     width="1247.9763"
     height="149.97626"
     xlink:href="#rect3340" />
  <use
     transform="translate(1080,0)"
     id="use4206"
     x="0"
     y="0"
     width="1247.9763"
     height="149.97626"
     xlink:href="#rect3340" />
  <use
     transform="translate(1128,0)"
     id="use4210"
     x="0"
     y="0"
     width="1247.9763"
     height="149.97626"
     xlink:href="#rect3340" />
  <use
     transform="translate(1152,0)"
     id="use4212"
     x="0"
     y="0"
     width="1247.9763"
     height="149.97626"
     xlink:href="#rect3340" />
  <use
     transform="translate(1176,0)"
     id="use4214"
     x="0"
     y="0"
     width="1247.9763"
     height="149.97626"
     xlink:href="#rect3340" />
  <path
     d="m 571,124.5 a 5.5,6.5 0 1 1 -11,0 5.5,6.5 0 1 1 11,0 z"
     id="path3881"
     style="fill:#000000;fill-opacity:1;stroke:none" />
</svg>
