<?xml version="1.0" encoding="UTF-8" standalone="no"?>
<!-- Created with Inkscape (http://www.inkscape.org/) -->

<svg
   version="1.1"
   id="svg824"
   xml:space="preserve"
   width="937.54504"
   height="385.62631"
   viewBox="0 0 937.54504 385.62631"
   sodipodi:docname="resonance.svg"
   inkscape:version="1.1.1 (3bf5ae0d25, 2021-09-20)"
   xmlns:inkscape="http://www.inkscape.org/namespaces/inkscape"
   xmlns:sodipodi="http://sodipodi.sourceforge.net/DTD/sodipodi-0.dtd"
   xmlns="http://www.w3.org/2000/svg"
   xmlns:svg="http://www.w3.org/2000/svg"><defs
     id="defs828"><clipPath
       clipPathUnits="userSpaceOnUse"
       id="clipPath852"><path
         d="M 1.4305e-5,0 H 960.00001 V 540 H 1.4305e-5 Z"
         clip-rule="evenodd"
         id="path850" /></clipPath><clipPath
       clipPathUnits="userSpaceOnUse"
       id="clipPath864"><path
         d="M 1.4305e-5,0 H 960.00001 V 540 H 1.4305e-5 Z"
         clip-rule="evenodd"
         id="path862" /></clipPath><linearGradient
       x1="429.95999"
       y1="530.88"
       x2="429.95999"
       y2="209.75999"
       gradientUnits="userSpaceOnUse"
       spreadMethod="pad"
       id="linearGradient882"><stop
         style="stop-opacity:1;stop-color:#ffd479"
         offset="0"
         id="stop872" /><stop
         style="stop-opacity:1;stop-color:#ffd78e"
         offset="0.25"
         id="stop874" /><stop
         style="stop-opacity:1;stop-color:#ffdd9c"
         offset="0.5"
         id="stop876" /><stop
         style="stop-opacity:1;stop-color:#ffd78e"
         offset="0.75"
         id="stop878" /><stop
         style="stop-opacity:1;stop-color:#ffd479"
         offset="1"
         id="stop880" /></linearGradient><clipPath
       clipPathUnits="userSpaceOnUse"
       id="clipPath894"><path
         d="M 1.4305e-5,0 H 960.00001 V 540 H 1.4305e-5 Z"
         clip-rule="evenodd"
         id="path892" /></clipPath><clipPath
       clipPathUnits="userSpaceOnUse"
       id="clipPath906"><path
         d="M 1.4305e-5,0 H 960.00001 V 540 H 1.4305e-5 Z"
         clip-rule="evenodd"
         id="path904" /></clipPath><clipPath
       clipPathUnits="userSpaceOnUse"
       id="clipPath918"><path
         d="M 1.4305e-5,0 H 960.00001 V 540 H 1.4305e-5 Z"
         clip-rule="evenodd"
         id="path916" /></clipPath><clipPath
       clipPathUnits="userSpaceOnUse"
       id="clipPath934"><path
         d="M 1.4305e-5,0 H 960.00001 V 540 H 1.4305e-5 Z"
         clip-rule="evenodd"
         id="path932" /></clipPath><clipPath
       clipPathUnits="userSpaceOnUse"
       id="clipPath946"><path
         d="M 1.4305e-5,0 H 960.00001 V 540 H 1.4305e-5 Z"
         clip-rule="evenodd"
         id="path944" /></clipPath><clipPath
       clipPathUnits="userSpaceOnUse"
       id="clipPath966"><path
         d="M 1.4305e-5,0 H 960.00001 V 540 H 1.4305e-5 Z"
         clip-rule="evenodd"
         id="path964" /></clipPath><clipPath
       clipPathUnits="userSpaceOnUse"
       id="clipPath978"><path
         d="M 1.4305e-5,0 H 960.00001 V 540 H 1.4305e-5 Z"
         clip-rule="evenodd"
         id="path976" /></clipPath><clipPath
       clipPathUnits="userSpaceOnUse"
       id="clipPath990"><path
         d="M 1.4305e-5,0 H 960.00001 V 540 H 1.4305e-5 Z"
         clip-rule="evenodd"
         id="path988" /></clipPath><clipPath
       clipPathUnits="userSpaceOnUse"
       id="clipPath1002"><path
         d="M 1.4305e-5,0 H 960.00001 V 540 H 1.4305e-5 Z"
         clip-rule="evenodd"
         id="path1000" /></clipPath><clipPath
       clipPathUnits="userSpaceOnUse"
       id="clipPath1018"><path
         d="M -6.1035e-5,540 H 960 V 1.8311e-4 L -6.1035e-5,1.2207e-4"
         clip-rule="evenodd"
         id="path1016" /></clipPath><clipPath
       clipPathUnits="userSpaceOnUse"
       id="clipPath1028"><path
         d="M -6.1035e-5,540 H 960 V 1.8311e-4 L -6.1035e-5,1.2207e-4"
         clip-rule="evenodd"
         id="path1026" /></clipPath><clipPath
       clipPathUnits="userSpaceOnUse"
       id="clipPath1038"><path
         d="M -9.1553e-5,540 H 960 V 1.8311e-4 L -6.1035e-5,1.2207e-4"
         clip-rule="evenodd"
         id="path1036" /></clipPath></defs><sodipodi:namedview
     id="namedview826"
     pagecolor="#ffffff"
     bordercolor="#666666"
     borderopacity="1.0"
     inkscape:pageshadow="2"
     inkscape:pageopacity="0.0"
     inkscape:pagecheckerboard="0"
     showgrid="false"
     fit-margin-top="0"
     fit-margin-left="0"
     fit-margin-right="0"
     fit-margin-bottom="0"
     inkscape:zoom="1.0578125"
     inkscape:cx="643.30872"
     inkscape:cy="232.08272"
     inkscape:window-width="1920"
     inkscape:window-height="1017"
     inkscape:window-x="1912"
     inkscape:window-y="-8"
     inkscape:window-maximized="1"
     inkscape:current-layer="g830" /><g
     id="g830"
     inkscape:groupmode="layer"
     inkscape:label="resonance"
     transform="matrix(1.3333333,0,0,-1.3333333,-104.64,512.9277)"><path
       d="m 78.96,324.03 h 147.3 v 33.93 l 67.86,-67.86 -67.86,-67.86 v 33.93 H 78.96 Z"
       style="fill:#4472c4;fill-opacity:1;fill-rule:evenodd;stroke:none"
       id="path842" /><path
       d="m 78.96,324.03 h 147.3 v 33.93 l 67.86,-67.86 -67.86,-67.86 v 33.93 H 78.96 Z"
       style="fill:none;stroke:#2f528f;stroke-width:0.96;stroke-linecap:butt;stroke-linejoin:miter;stroke-miterlimit:10;stroke-dasharray:none;stroke-opacity:1"
       id="path844" /><g
       id="g846"><g
         id="g848"
         clip-path="url(#clipPath852)"><text
           transform="matrix(1,0,0,-1,102.62,294.82)"
           style="font-variant:normal;font-weight:normal;font-size:18.024px;font-family:Calibri;-inkscape-font-specification:Calibri;writing-mode:lr-tb;fill:#ffffff;fill-opacity:1;fill-rule:nonzero;stroke:none"
           id="text856"><tspan
             x="0 8.7957125 18.258312 27.234264 33.236256 41.725559 49.89043 53.963856 61.065311 70.563957 80.026558 86.028549 93.580605 102.55656 106.62998 115.17336 121.2114 125.28482 133.91832"
             y="0"
             sodipodi:role="line"
             id="tspan854">Energy source at a </tspan></text></g></g><g
       id="g858"><g
         id="g860"
         clip-path="url(#clipPath864)"><text
           transform="matrix(1,0,0,-1,98.184,273.19)"
           style="font-variant:normal;font-weight:normal;font-size:18px;font-family:Calibri;-inkscape-font-specification:Calibri;writing-mode:lr-tb;fill:#ffffff;fill-opacity:1;fill-rule:nonzero;stroke:none"
           id="text868"><tspan
             x="0 5.994 14.958 22.049999 31.535999 40.986 49.608002 59.057999 65.015999 69.084 74.573997 80.622002 89.585999 99.089996 108.54 117.558 127.008 134.62199"
             y="0"
             sodipodi:role="line"
             id="tspan866">resonant frequency</tspan></text></g></g><g
       id="g870"><path
         d="M 330.24,209.76 H 529.68 V 370.32 H 330.24 Z"
         style="fill:url(#linearGradient882);fill-opacity:1;fill-rule:evenodd;stroke:none"
         id="path884" /></g><path
       d="M 330.24,209.76 H 529.68 V 370.32 H 330.24 Z"
       style="fill:none;stroke:#ffc000;stroke-width:0.48;stroke-linecap:butt;stroke-linejoin:miter;stroke-miterlimit:10;stroke-dasharray:none;stroke-opacity:1"
       id="path886" /><g
       id="g888"><g
         id="g890"
         clip-path="url(#clipPath894)"><text
           transform="matrix(1,0,0,-1,369.77,305.62)"
           style="font-variant:normal;font-weight:normal;font-size:18px;font-family:Calibri;-inkscape-font-specification:Calibri;writing-mode:lr-tb;fill:#000000;fill-opacity:1;fill-rule:nonzero;stroke:none"
           id="text898"><tspan
             x="0 8.7840004 18.233999 27.198 33.245998 41.723999 49.877998 53.981998 60.821999 66.708 76.194 82.188004 91.152 100.656 104.724 113.346 120.438"
             y="0"
             sodipodi:role="line"
             id="tspan896">Energy stored as </tspan></text></g></g><g
       id="g900"><g
         id="g902"
         clip-path="url(#clipPath906)"><text
           transform="matrix(1,0,0,-1,370.25,284.02)"
           style="font-variant:normal;font-weight:normal;font-size:18.024px;font-family:Calibri;-inkscape-font-specification:Calibri;writing-mode:lr-tb;fill:#000000;fill-opacity:1;fill-rule:nonzero;stroke:none"
           id="text910"><tspan
             x="0 8.1468477 12.292368 21.754969 27.594744 36.120094 42.158134 46.195511 55.69416 65.156761 72.204147 76.277565 84.838966 90.877007 94.950432 100.91637 110.37897 119.35493"
             y="0"
             sodipodi:role="line"
             id="tspan908">vibrations at the </tspan></text></g></g><g
       id="g912"><g
         id="g914"
         clip-path="url(#clipPath918)"><text
           transform="matrix(1,0,0,-1,353.21,262.39)"
           style="font-variant:normal;font-weight:normal;font-size:18px;font-family:Calibri;-inkscape-font-specification:Calibri;writing-mode:lr-tb;fill:#000000;fill-opacity:1;fill-rule:nonzero;stroke:none"
           id="text922"><tspan
             x="0 5.994 14.958 22.049999 31.535999 40.986 49.608002 59.112 66.671997 75.636002 79.848 85.337997 91.367996 100.332 109.836 119.286 128.304 137.754 145.368"
             y="0"
             sodipodi:role="line"
             id="tspan920">resonance frequency</tspan></text></g></g><path
       d="m 565.8,315.12 h 159.72 v 27.72 l 55.44,-55.44 -55.44,-55.44 v 27.72 H 565.8 Z"
       style="fill:#4472c4;fill-opacity:1;fill-rule:evenodd;stroke:none"
       id="path924" /><path
       d="m 565.8,315.12 h 159.72 v 27.72 l 55.44,-55.44 -55.44,-55.44 v 27.72 H 565.8 Z"
       style="fill:none;stroke:#2f528f;stroke-width:0.96;stroke-linecap:butt;stroke-linejoin:miter;stroke-miterlimit:10;stroke-dasharray:none;stroke-opacity:1"
       id="path926" /><g
       id="g928"><g
         id="g930"
         clip-path="url(#clipPath934)"><text
           transform="matrix(1,0,0,-1,586.27,292.1)"
           style="font-variant:normal;font-weight:normal;font-size:18px;font-family:Calibri;-inkscape-font-specification:Calibri;writing-mode:lr-tb;fill:#ffffff;fill-opacity:1;fill-rule:nonzero;stroke:none"
           id="text938"><tspan
             x="0 8.7840004 18.233999 27.198 33.245998 41.723999 49.877998 53.981998 58.068001 67.031998 75.473999 83.519997 92.484001 99.575996 103.536 112.05 118.08 122.148 128.17799 137.62801 146.592"
             y="0"
             sodipodi:role="line"
             id="tspan936">Energy leaves at the </tspan></text></g></g><g
       id="g940"><g
         id="g942"
         clip-path="url(#clipPath946)"><text
           transform="matrix(1,0,0,-1,588.19,270.5)"
           style="font-variant:normal;font-weight:normal;font-size:18px;font-family:Calibri;-inkscape-font-specification:Calibri;writing-mode:lr-tb;fill:#ffffff;fill-opacity:1;fill-rule:nonzero;stroke:none"
           id="text950"><tspan
             x="0 5.994 14.958 22.049999 31.535999 40.986 49.608002 59.057999 65.015999 69.084 74.573997 80.622002 89.585999 99.089996 108.54 117.558 127.008 134.62199"
             y="0"
             sodipodi:role="line"
             id="tspan948">resonant frequency</tspan></text></g></g><path
       d="m 298.68,290.1 c 0,8.05 6.53,14.58 14.58,14.58 8.05,0 14.58,-6.53 14.58,-14.58 0,-8.05 -6.53,-14.58 -14.58,-14.58 -8.05,0 -14.58,6.53 -14.58,14.58 z"
       style="fill:#70ad47;fill-opacity:1;fill-rule:evenodd;stroke:none"
       id="path952" /><path
       d="m 298.68,290.1 c 0,8.05 6.53,14.58 14.58,14.58 8.05,0 14.58,-6.53 14.58,-14.58 0,-8.05 -6.53,-14.58 -14.58,-14.58 -8.05,0 -14.58,6.53 -14.58,14.58 z"
       style="fill:none;stroke:#507e32;stroke-width:0.96;stroke-linecap:butt;stroke-linejoin:miter;stroke-miterlimit:10;stroke-dasharray:none;stroke-opacity:1"
       id="path954" /><path
       d="m 534.24,287.34 c 0,8.05 6.53,14.58 14.58,14.58 8.05,0 14.58,-6.53 14.58,-14.58 0,-8.05 -6.53,-14.58 -14.58,-14.58 -8.05,0 -14.58,6.53 -14.58,14.58 z"
       style="fill:#70ad47;fill-opacity:1;fill-rule:evenodd;stroke:none"
       id="path956" /><path
       d="m 534.24,287.34 c 0,8.05 6.53,14.58 14.58,14.58 8.05,0 14.58,-6.53 14.58,-14.58 0,-8.05 -6.53,-14.58 -14.58,-14.58 -8.05,0 -14.58,6.53 -14.58,14.58 z"
       style="fill:none;stroke:#507e32;stroke-width:0.96;stroke-linecap:butt;stroke-linejoin:miter;stroke-miterlimit:10;stroke-dasharray:none;stroke-opacity:1"
       id="path958" /><g
       id="g960"><g
         id="g962"
         clip-path="url(#clipPath966)"><text
           transform="matrix(1,0,0,-1,269.04,373.27)"
           style="font-variant:normal;font-weight:normal;font-size:18px;font-family:Calibri;-inkscape-font-specification:Calibri;writing-mode:lr-tb;fill:#000000;fill-opacity:1;fill-rule:nonzero;stroke:none"
           id="text970"><tspan
             x="0 4.5599999 14.034 23.507999 32.981998"
             y="0"
             sodipodi:role="line"
             id="tspan968">Input</tspan></text></g></g><g
       id="g972"><g
         id="g974"
         clip-path="url(#clipPath978)"><text
           transform="matrix(1,0,0,-1,257.52,351.67)"
           style="font-variant:normal;font-weight:normal;font-size:18px;font-family:Calibri;-inkscape-font-specification:Calibri;writing-mode:lr-tb;fill:#000000;fill-opacity:1;fill-rule:nonzero;stroke:none"
           id="text982"><tspan
             x="0 7.434 16.92 26.370001 35.82 39.959999 44.028 53.478001"
             y="0"
             sodipodi:role="line"
             id="tspan980">coupling</tspan></text></g></g><g
       id="g984"><g
         id="g986"
         clip-path="url(#clipPath990)"><text
           transform="matrix(1,0,0,-1,547.37,372.65)"
           style="font-variant:normal;font-weight:normal;font-size:18px;font-family:Calibri;-inkscape-font-specification:Calibri;writing-mode:lr-tb;fill:#000000;fill-opacity:1;fill-rule:nonzero;stroke:none"
           id="text994"><tspan
             x="0 11.916 21.365999 27.396 36.846001 46.296001"
             y="0"
             sodipodi:role="line"
             id="tspan992">Output</tspan></text></g></g><g
       id="g996"><g
         id="g998"
         clip-path="url(#clipPath1002)"><text
           transform="matrix(1,0,0,-1,542.57,351.05)"
           style="font-variant:normal;font-weight:normal;font-size:18px;font-family:Calibri;-inkscape-font-specification:Calibri;writing-mode:lr-tb;fill:#000000;fill-opacity:1;fill-rule:nonzero;stroke:none"
           id="text1006"><tspan
             x="0 7.434 16.92 26.370001 35.82 39.959999 44.028 53.478001"
             y="0"
             sodipodi:role="line"
             id="tspan1004">coupling</tspan></text></g></g><path
       d="m 288.95,343 12.81,-37.71 -0.95,-0.32 -12.8,37.71 z m 14.85,-35.96 -0.91,-6.64 -4.77,4.72 z"
       style="fill:#4472c4;fill-opacity:1;fill-rule:nonzero;stroke:none"
       id="path1008" /><path
       d="m 573.06,342.5 -22.11,-35.98 0.85,-0.52 22.11,35.98 z m -23.72,-33.82 -0.58,-6.68 5.7,3.54 z"
       style="fill:#4472c4;fill-opacity:1;fill-rule:nonzero;stroke:none"
       id="path1010" /><g
       id="g1012"><g
         id="g1014"
         clip-path="url(#clipPath1018)"><path
           d="m 513.22,207.03 120.62,-65.21 8.2,15.18 13.95,-46.76 -46.76,-13.94 8.2,15.17 -120.62,65.21 z"
           style="fill:#ff0000;fill-opacity:1;fill-rule:evenodd;stroke:none"
           id="path1020" /></g></g><g
       id="g1022"><g
         id="g1024"
         clip-path="url(#clipPath1028)"><path
           d="m 513.22,207.03 120.62,-65.21 8.2,15.18 13.95,-46.76 -46.76,-13.94 8.2,15.17 -120.62,65.21 z"
           style="fill:none;stroke:#c00000;stroke-width:1;stroke-linecap:butt;stroke-linejoin:miter;stroke-miterlimit:10;stroke-dasharray:none;stroke-opacity:1"
           id="path1030" /></g></g><g
       id="g1032"><g
         id="g1034"
         clip-path="url(#clipPath1038)"><path
           d="m 517,179.27 c -0.05,-0.09 -0.1,-0.17 -0.15,-0.24 -0.05,-0.06 -0.1,-0.11 -0.15,-0.14 -0.05,-0.03 -0.1,-0.05 -0.14,-0.05 -0.05,-0.01 -0.09,0 -0.13,0.03 l -4.8,2.59 c -0.12,0.07 -0.21,0.17 -0.27,0.3 -0.07,0.14 -0.04,0.31 0.07,0.51 l 4.82,8.92 c 0.11,0.2 0.24,0.32 0.39,0.34 0.14,0.02 0.28,0 0.4,-0.06 l 4.74,-2.57 c 0.05,-0.02 0.08,-0.05 0.1,-0.09 0.02,-0.04 0.03,-0.09 0.03,-0.14 -0.01,-0.06 -0.02,-0.13 -0.05,-0.21 -0.02,-0.07 -0.06,-0.16 -0.12,-0.27 -0.05,-0.09 -0.1,-0.17 -0.15,-0.23 -0.05,-0.06 -0.1,-0.11 -0.14,-0.14 -0.05,-0.03 -0.09,-0.05 -0.13,-0.05 -0.05,-0.01 -0.09,0 -0.13,0.03 l -3.92,2.11 -1.69,-3.14 3.35,-1.81 c 0.04,-0.02 0.08,-0.06 0.1,-0.1 0.02,-0.04 0.03,-0.09 0.03,-0.14 0,-0.05 -0.01,-0.12 -0.04,-0.2 -0.03,-0.08 -0.07,-0.16 -0.13,-0.26 -0.05,-0.09 -0.09,-0.17 -0.14,-0.23 -0.05,-0.06 -0.09,-0.11 -0.14,-0.14 -0.04,-0.03 -0.09,-0.04 -0.13,-0.04 -0.04,0 -0.09,0.01 -0.13,0.03 l -3.35,1.82 -1.94,-3.58 3.97,-2.15 c 0.04,-0.02 0.07,-0.05 0.09,-0.09 0.03,-0.04 0.04,-0.09 0.04,-0.14 0,-0.06 -0.01,-0.13 -0.04,-0.2 -0.03,-0.08 -0.07,-0.17 -0.12,-0.27 z m 7.79,-4.67 c -0.02,-0.04 -0.05,-0.07 -0.09,-0.09 -0.03,-0.02 -0.08,-0.02 -0.14,-0.02 -0.06,0.01 -0.13,0.02 -0.22,0.06 -0.08,0.03 -0.19,0.08 -0.31,0.15 -0.13,0.07 -0.24,0.13 -0.31,0.19 -0.08,0.05 -0.14,0.1 -0.17,0.15 -0.04,0.04 -0.06,0.09 -0.06,0.13 -0.01,0.04 0,0.08 0.02,0.12 l 2.21,4.07 c 0.21,0.4 0.35,0.74 0.42,1.01 0.07,0.28 0.09,0.53 0.07,0.77 -0.02,0.24 -0.11,0.46 -0.24,0.65 -0.14,0.2 -0.33,0.36 -0.58,0.5 -0.32,0.17 -0.7,0.23 -1.14,0.17 -0.45,-0.05 -0.96,-0.2 -1.55,-0.45 l -2.63,-4.86 c -0.02,-0.04 -0.05,-0.07 -0.08,-0.09 -0.04,-0.02 -0.09,-0.02 -0.14,-0.02 -0.06,0 -0.14,0.02 -0.22,0.06 -0.09,0.03 -0.2,0.08 -0.33,0.15 -0.12,0.07 -0.22,0.13 -0.3,0.19 -0.08,0.05 -0.13,0.1 -0.17,0.15 -0.04,0.05 -0.06,0.09 -0.06,0.13 0,0.04 0,0.08 0.03,0.12 l 3.76,6.96 c 0.02,0.04 0.05,0.07 0.08,0.09 0.03,0.02 0.07,0.03 0.13,0.02 0.06,0 0.13,-0.01 0.21,-0.05 0.07,-0.03 0.17,-0.07 0.29,-0.14 0.11,-0.06 0.2,-0.11 0.27,-0.16 0.07,-0.05 0.12,-0.1 0.15,-0.14 0.03,-0.05 0.05,-0.09 0.05,-0.13 0,-0.04 -0.01,-0.08 -0.03,-0.12 l -0.5,-0.92 c 0.63,0.23 1.2,0.34 1.7,0.33 0.49,0 0.94,-0.12 1.34,-0.33 0.46,-0.25 0.81,-0.54 1.04,-0.87 0.24,-0.33 0.38,-0.68 0.43,-1.05 0.06,-0.36 0.03,-0.75 -0.08,-1.15 -0.1,-0.4 -0.29,-0.84 -0.56,-1.34 z m 10.33,-0.7 c -0.11,-0.2 -0.24,-0.32 -0.39,-0.35 -0.14,-0.03 -0.28,-0.01 -0.41,0.06 l -4.58,2.48 c -0.21,-0.39 -0.36,-0.76 -0.45,-1.11 -0.09,-0.35 -0.1,-0.68 -0.04,-1 0.06,-0.32 0.2,-0.62 0.43,-0.9 0.22,-0.27 0.55,-0.52 0.97,-0.75 0.33,-0.18 0.64,-0.31 0.93,-0.4 0.28,-0.08 0.54,-0.14 0.77,-0.18 0.22,-0.03 0.41,-0.06 0.56,-0.07 0.15,-0.01 0.26,-0.03 0.32,-0.07 0.04,-0.02 0.06,-0.04 0.08,-0.08 0.02,-0.03 0.03,-0.07 0.03,-0.11 -0.01,-0.05 -0.02,-0.11 -0.05,-0.17 -0.03,-0.07 -0.07,-0.15 -0.12,-0.25 -0.03,-0.06 -0.07,-0.12 -0.1,-0.17 -0.03,-0.04 -0.06,-0.08 -0.09,-0.12 -0.03,-0.03 -0.06,-0.06 -0.09,-0.08 -0.04,-0.02 -0.08,-0.04 -0.12,-0.05 -0.05,-0.01 -0.15,-0.02 -0.33,0 -0.17,0.01 -0.39,0.04 -0.64,0.1 -0.26,0.06 -0.54,0.14 -0.86,0.25 -0.32,0.11 -0.64,0.25 -0.97,0.43 -0.57,0.31 -1.03,0.66 -1.38,1.05 -0.34,0.39 -0.57,0.83 -0.7,1.3 -0.12,0.47 -0.13,0.99 -0.02,1.54 0.1,0.56 0.33,1.15 0.67,1.78 0.32,0.6 0.69,1.09 1.1,1.48 0.41,0.4 0.85,0.68 1.33,0.86 0.47,0.17 0.96,0.24 1.46,0.19 0.51,-0.04 1.02,-0.2 1.53,-0.48 0.55,-0.3 0.97,-0.63 1.26,-1.02 0.29,-0.38 0.47,-0.79 0.56,-1.22 0.09,-0.43 0.08,-0.87 -0.02,-1.34 -0.1,-0.46 -0.27,-0.92 -0.52,-1.37 z m -1.08,1.07 c 0.38,0.66 0.51,1.27 0.4,1.82 -0.1,0.55 -0.46,0.99 -1.08,1.33 -0.32,0.17 -0.63,0.26 -0.93,0.27 -0.3,0.01 -0.59,-0.04 -0.85,-0.15 -0.27,-0.11 -0.52,-0.27 -0.75,-0.48 -0.23,-0.21 -0.42,-0.46 -0.59,-0.74 z m 8.6,-1.62 c -0.07,-0.11 -0.12,-0.21 -0.17,-0.28 -0.04,-0.07 -0.09,-0.13 -0.13,-0.16 -0.04,-0.04 -0.07,-0.06 -0.11,-0.07 -0.03,-0.01 -0.07,-0.01 -0.11,0.01 -0.04,0.03 -0.09,0.06 -0.14,0.12 -0.04,0.06 -0.1,0.11 -0.16,0.18 -0.06,0.06 -0.13,0.13 -0.21,0.2 -0.09,0.07 -0.18,0.14 -0.29,0.19 -0.13,0.07 -0.27,0.12 -0.42,0.13 -0.15,0.02 -0.33,0 -0.53,-0.04 -0.2,-0.05 -0.43,-0.13 -0.68,-0.24 -0.26,-0.12 -0.55,-0.27 -0.89,-0.45 l -2.47,-4.58 c -0.02,-0.04 -0.05,-0.07 -0.09,-0.09 -0.03,-0.02 -0.08,-0.02 -0.14,-0.02 -0.06,0.01 -0.13,0.03 -0.22,0.06 -0.08,0.03 -0.19,0.09 -0.32,0.16 -0.13,0.06 -0.23,0.12 -0.3,0.18 -0.08,0.05 -0.14,0.1 -0.17,0.15 -0.04,0.05 -0.06,0.09 -0.07,0.13 0,0.04 0.01,0.08 0.03,0.12 l 3.77,6.96 c 0.02,0.04 0.04,0.07 0.08,0.09 0.03,0.02 0.07,0.03 0.13,0.03 0.06,-0.01 0.13,-0.02 0.2,-0.05 0.08,-0.04 0.18,-0.08 0.29,-0.15 0.12,-0.06 0.21,-0.11 0.28,-0.16 0.07,-0.05 0.12,-0.1 0.15,-0.14 0.03,-0.05 0.04,-0.09 0.05,-0.13 0,-0.03 -0.01,-0.07 -0.03,-0.12 l -0.55,-1.01 c 0.34,0.18 0.64,0.31 0.91,0.39 0.26,0.09 0.49,0.14 0.69,0.16 0.21,0.02 0.39,0.01 0.56,-0.03 0.17,-0.04 0.33,-0.11 0.48,-0.19 0.06,-0.03 0.14,-0.08 0.22,-0.13 0.08,-0.05 0.16,-0.12 0.24,-0.19 0.08,-0.07 0.16,-0.14 0.22,-0.2 0.06,-0.07 0.1,-0.12 0.11,-0.17 0.02,-0.04 0.03,-0.07 0.03,-0.1 -0.01,-0.03 -0.01,-0.07 -0.03,-0.11 -0.01,-0.04 -0.03,-0.09 -0.07,-0.16 -0.03,-0.07 -0.08,-0.17 -0.14,-0.29 z m 7.1,-3.66 c -0.1,-0.18 -0.2,-0.29 -0.29,-0.35 -0.09,-0.05 -0.18,-0.06 -0.25,-0.01 l -1,0.53 c 0.08,-0.28 0.1,-0.55 0.05,-0.82 -0.05,-0.26 -0.14,-0.51 -0.27,-0.75 -0.22,-0.41 -0.48,-0.73 -0.77,-0.97 -0.3,-0.24 -0.63,-0.4 -0.98,-0.48 -0.36,-0.09 -0.73,-0.1 -1.12,-0.03 -0.39,0.06 -0.79,0.21 -1.19,0.42 -0.28,0.16 -0.53,0.34 -0.75,0.55 -0.21,0.21 -0.36,0.41 -0.44,0.6 -0.14,-0.04 -0.27,-0.1 -0.4,-0.19 -0.12,-0.09 -0.22,-0.21 -0.31,-0.36 -0.09,-0.18 -0.09,-0.38 0.01,-0.59 0.11,-0.21 0.29,-0.39 0.57,-0.55 l 1.77,-1.06 c 0.34,-0.2 0.63,-0.42 0.88,-0.66 0.24,-0.24 0.42,-0.5 0.55,-0.77 0.13,-0.27 0.19,-0.55 0.18,-0.84 0,-0.3 -0.09,-0.6 -0.25,-0.9 -0.18,-0.32 -0.41,-0.59 -0.7,-0.8 -0.29,-0.22 -0.63,-0.36 -1.02,-0.43 -0.4,-0.07 -0.84,-0.06 -1.34,0.05 -0.5,0.1 -1.04,0.31 -1.62,0.63 -0.56,0.3 -1.01,0.61 -1.35,0.92 -0.35,0.31 -0.6,0.61 -0.76,0.91 -0.17,0.3 -0.24,0.6 -0.23,0.89 0.01,0.29 0.09,0.57 0.23,0.84 0.09,0.17 0.2,0.32 0.33,0.46 0.13,0.14 0.27,0.26 0.44,0.35 0.16,0.1 0.34,0.18 0.54,0.25 0.19,0.06 0.41,0.11 0.64,0.15 -0.18,0.27 -0.28,0.53 -0.29,0.79 -0.02,0.26 0.04,0.51 0.16,0.73 0.17,0.32 0.38,0.56 0.65,0.74 0.26,0.18 0.54,0.31 0.84,0.41 -0.06,0.27 -0.07,0.56 -0.03,0.85 0.03,0.29 0.14,0.6 0.33,0.94 0.21,0.4 0.47,0.72 0.77,0.96 0.31,0.24 0.64,0.41 0.99,0.5 0.36,0.08 0.73,0.1 1.13,0.03 0.39,-0.06 0.78,-0.2 1.18,-0.41 0.21,-0.11 0.4,-0.23 0.57,-0.36 0.17,-0.12 0.32,-0.24 0.46,-0.37 l 2.1,-1.14 c 0.09,-0.04 0.13,-0.12 0.13,-0.23 0,-0.11 -0.05,-0.25 -0.14,-0.43 z m -2.99,-0.75 c 0.26,0.47 0.33,0.91 0.21,1.32 -0.12,0.41 -0.41,0.74 -0.89,1 -0.25,0.13 -0.49,0.21 -0.72,0.22 -0.22,0.02 -0.44,-0.01 -0.64,-0.09 -0.2,-0.08 -0.38,-0.2 -0.54,-0.35 -0.16,-0.16 -0.29,-0.34 -0.41,-0.55 -0.24,-0.45 -0.31,-0.89 -0.19,-1.29 0.12,-0.4 0.41,-0.73 0.88,-0.99 0.25,-0.13 0.49,-0.21 0.72,-0.23 0.23,-0.02 0.44,0.01 0.64,0.08 0.2,0.08 0.38,0.19 0.54,0.35 0.16,0.15 0.29,0.33 0.4,0.53 z m -2.34,-5.86 c 0.16,0.3 0.17,0.6 0.01,0.89 -0.16,0.3 -0.44,0.56 -0.85,0.8 l -1.77,1.03 c -0.24,-0.04 -0.44,-0.09 -0.61,-0.15 -0.17,-0.05 -0.31,-0.12 -0.43,-0.19 -0.12,-0.07 -0.22,-0.16 -0.29,-0.25 -0.08,-0.09 -0.15,-0.19 -0.21,-0.29 -0.18,-0.34 -0.15,-0.69 0.1,-1.04 0.24,-0.36 0.67,-0.7 1.28,-1.03 0.39,-0.21 0.73,-0.35 1.03,-0.41 0.3,-0.07 0.57,-0.08 0.79,-0.05 0.23,0.04 0.42,0.12 0.58,0.24 0.15,0.13 0.28,0.27 0.37,0.45 z m 6.48,-2.84 -2.31,-2.06 c -0.07,-0.07 -0.19,-0.09 -0.34,-0.06 -0.15,0.02 -0.35,0.1 -0.61,0.24 -0.13,0.07 -0.24,0.14 -0.31,0.2 -0.08,0.05 -0.13,0.11 -0.16,0.17 -0.02,0.05 -0.03,0.1 0,0.16 0.02,0.05 0.07,0.11 0.14,0.16 l 2.26,1.91 c -0.03,0.04 -0.06,0.1 -0.07,0.17 -0.02,0.07 -0.02,0.13 -0.01,0.19 l 1.11,7.99 c 0.02,0.13 0.04,0.23 0.08,0.29 0.03,0.06 0.08,0.1 0.14,0.11 0.06,0.02 0.14,0 0.24,-0.03 0.1,-0.04 0.23,-0.1 0.38,-0.18 0.16,-0.09 0.28,-0.16 0.36,-0.21 0.08,-0.06 0.14,-0.11 0.18,-0.16 0.05,-0.05 0.07,-0.1 0.07,-0.15 0,-0.05 0,-0.11 -0.01,-0.2 l -1.03,-6.65 0.02,-0.01 4.95,4.57 c 0.08,0.08 0.16,0.13 0.22,0.13 0.05,0.01 0.13,-0.01 0.23,-0.04 0.09,-0.04 0.22,-0.1 0.39,-0.19 0.14,-0.08 0.25,-0.15 0.34,-0.21 0.09,-0.06 0.14,-0.12 0.17,-0.18 0.02,-0.06 0.02,-0.13 -0.02,-0.19 -0.03,-0.06 -0.09,-0.13 -0.17,-0.2 z m 8.98,-4.61 c -0.02,-0.04 -0.05,-0.07 -0.09,-0.08 -0.03,-0.02 -0.08,-0.03 -0.14,-0.02 -0.06,0 -0.13,0.02 -0.22,0.05 -0.08,0.04 -0.19,0.09 -0.32,0.16 -0.13,0.07 -0.23,0.13 -0.3,0.18 -0.08,0.06 -0.14,0.11 -0.17,0.16 -0.04,0.04 -0.06,0.09 -0.07,0.12 0,0.04 0.01,0.08 0.03,0.12 l 5.59,10.33 c 0.02,0.04 0.05,0.07 0.08,0.1 0.04,0.02 0.09,0.02 0.15,0.02 0.06,-0.01 0.13,-0.03 0.22,-0.06 0.09,-0.04 0.19,-0.09 0.32,-0.15 0.12,-0.07 0.23,-0.14 0.3,-0.19 0.08,-0.06 0.14,-0.11 0.17,-0.15 0.04,-0.05 0.06,-0.09 0.06,-0.13 0.01,-0.05 0,-0.09 -0.03,-0.13 z m 10.71,-1.19 c -0.31,-0.57 -0.67,-1.05 -1.07,-1.44 -0.41,-0.4 -0.86,-0.69 -1.34,-0.88 -0.48,-0.18 -1,-0.25 -1.55,-0.2 -0.55,0.05 -1.12,0.23 -1.71,0.55 -0.57,0.31 -1.02,0.66 -1.35,1.06 -0.34,0.4 -0.56,0.84 -0.67,1.32 -0.1,0.47 -0.1,0.98 0.01,1.52 0.11,0.54 0.33,1.11 0.64,1.69 0.31,0.57 0.67,1.05 1.07,1.45 0.4,0.4 0.85,0.69 1.33,0.87 0.48,0.19 1,0.26 1.55,0.21 0.54,-0.05 1.11,-0.24 1.7,-0.56 0.58,-0.31 1.03,-0.66 1.36,-1.06 0.34,-0.4 0.56,-0.84 0.66,-1.32 0.11,-0.48 0.11,-0.98 0,-1.53 -0.11,-0.54 -0.32,-1.1 -0.63,-1.68 z m -1.37,0.63 c 0.2,0.38 0.36,0.75 0.47,1.12 0.11,0.38 0.15,0.73 0.13,1.07 -0.03,0.34 -0.14,0.66 -0.33,0.96 -0.2,0.29 -0.5,0.55 -0.91,0.77 -0.38,0.21 -0.74,0.32 -1.09,0.33 -0.35,0.02 -0.67,-0.05 -0.98,-0.2 -0.31,-0.15 -0.6,-0.37 -0.87,-0.66 -0.26,-0.29 -0.5,-0.63 -0.72,-1.03 -0.2,-0.38 -0.36,-0.76 -0.47,-1.13 -0.12,-0.37 -0.16,-0.73 -0.13,-1.07 0.03,-0.33 0.14,-0.65 0.34,-0.95 0.2,-0.29 0.5,-0.55 0.91,-0.77 0.37,-0.21 0.74,-0.32 1.08,-0.33 0.35,-0.02 0.68,0.05 0.99,0.2 0.31,0.14 0.59,0.36 0.86,0.65 0.26,0.29 0.5,0.64 0.72,1.04 z m 6.7,-5.66 c -0.19,-0.36 -0.42,-0.64 -0.71,-0.85 -0.28,-0.21 -0.59,-0.34 -0.94,-0.4 -0.34,-0.06 -0.71,-0.05 -1.1,0.04 -0.39,0.08 -0.78,0.23 -1.18,0.45 -0.25,0.13 -0.48,0.28 -0.68,0.44 -0.2,0.16 -0.38,0.32 -0.52,0.47 -0.15,0.16 -0.27,0.3 -0.35,0.43 -0.09,0.13 -0.15,0.24 -0.18,0.32 -0.03,0.08 -0.03,0.18 -0.01,0.28 0.03,0.11 0.08,0.24 0.17,0.4 0.05,0.1 0.1,0.18 0.15,0.24 0.04,0.06 0.09,0.11 0.12,0.14 0.04,0.04 0.08,0.06 0.12,0.06 0.04,0 0.07,-0.01 0.11,-0.03 0.06,-0.03 0.12,-0.11 0.19,-0.24 0.08,-0.13 0.17,-0.28 0.29,-0.45 0.12,-0.17 0.27,-0.35 0.45,-0.54 0.19,-0.19 0.42,-0.36 0.71,-0.51 0.22,-0.12 0.43,-0.2 0.63,-0.25 0.2,-0.05 0.39,-0.06 0.56,-0.04 0.18,0.02 0.34,0.08 0.49,0.18 0.14,0.1 0.27,0.25 0.37,0.44 0.11,0.19 0.14,0.39 0.12,0.57 -0.03,0.19 -0.1,0.38 -0.21,0.57 -0.11,0.2 -0.24,0.39 -0.41,0.58 -0.16,0.19 -0.33,0.39 -0.5,0.6 -0.17,0.2 -0.33,0.42 -0.48,0.64 -0.15,0.22 -0.26,0.46 -0.34,0.71 -0.08,0.25 -0.11,0.51 -0.09,0.79 0.02,0.27 0.11,0.57 0.28,0.87 0.15,0.28 0.34,0.51 0.58,0.7 0.24,0.2 0.52,0.33 0.83,0.4 0.32,0.08 0.66,0.09 1.04,0.03 0.38,-0.06 0.78,-0.2 1.2,-0.43 0.19,-0.1 0.36,-0.22 0.53,-0.35 0.17,-0.13 0.32,-0.26 0.44,-0.39 0.13,-0.12 0.23,-0.24 0.3,-0.35 0.08,-0.12 0.13,-0.21 0.17,-0.28 0.03,-0.07 0.04,-0.12 0.05,-0.16 0,-0.04 -0.01,-0.09 -0.02,-0.13 -0.01,-0.04 -0.03,-0.09 -0.06,-0.15 -0.02,-0.07 -0.05,-0.14 -0.1,-0.22 -0.04,-0.09 -0.09,-0.16 -0.13,-0.22 -0.04,-0.06 -0.09,-0.11 -0.13,-0.14 -0.04,-0.03 -0.07,-0.05 -0.11,-0.05 -0.04,-0.01 -0.07,0 -0.1,0.02 -0.05,0.02 -0.1,0.09 -0.15,0.19 -0.06,0.1 -0.14,0.23 -0.25,0.37 -0.1,0.14 -0.23,0.28 -0.39,0.44 -0.16,0.16 -0.36,0.31 -0.6,0.44 -0.22,0.11 -0.42,0.19 -0.61,0.23 -0.19,0.04 -0.37,0.05 -0.52,0.01 -0.15,-0.03 -0.29,-0.09 -0.41,-0.19 -0.12,-0.09 -0.22,-0.21 -0.3,-0.36 -0.11,-0.2 -0.15,-0.39 -0.12,-0.59 0.03,-0.19 0.1,-0.38 0.21,-0.57 0.11,-0.2 0.24,-0.39 0.41,-0.59 0.17,-0.19 0.34,-0.39 0.51,-0.6 0.17,-0.21 0.33,-0.42 0.49,-0.65 0.15,-0.22 0.27,-0.45 0.35,-0.7 0.09,-0.24 0.12,-0.5 0.1,-0.77 -0.01,-0.27 -0.1,-0.55 -0.27,-0.85 z m 4.52,-4.23 c -0.08,-0.15 -0.15,-0.27 -0.22,-0.34 -0.07,-0.08 -0.13,-0.13 -0.2,-0.15 -0.06,-0.02 -0.14,-0.02 -0.25,-0.01 -0.1,0.01 -0.21,0.03 -0.33,0.06 -0.11,0.03 -0.24,0.08 -0.36,0.12 -0.13,0.05 -0.25,0.11 -0.37,0.17 -0.36,0.2 -0.65,0.41 -0.85,0.65 -0.21,0.23 -0.34,0.49 -0.4,0.77 -0.06,0.29 -0.05,0.6 0.04,0.93 0.08,0.34 0.23,0.71 0.45,1.11 l 2.2,4.07 -0.98,0.52 c -0.07,0.05 -0.11,0.12 -0.11,0.23 -0.01,0.11 0.04,0.25 0.14,0.44 0.06,0.1 0.11,0.18 0.16,0.24 0.05,0.06 0.09,0.1 0.14,0.13 0.04,0.04 0.08,0.05 0.13,0.05 0.04,0 0.08,-0.01 0.12,-0.03 l 0.97,-0.52 0.9,1.65 c 0.02,0.04 0.04,0.07 0.08,0.09 0.03,0.02 0.08,0.03 0.14,0.02 0.06,0 0.14,-0.02 0.23,-0.05 0.08,-0.04 0.19,-0.09 0.31,-0.15 0.13,-0.07 0.24,-0.14 0.31,-0.19 0.08,-0.06 0.13,-0.11 0.17,-0.16 0.03,-0.04 0.05,-0.09 0.05,-0.13 0.01,-0.04 0,-0.08 -0.02,-0.12 l -0.89,-1.65 1.78,-0.97 c 0.04,-0.02 0.08,-0.05 0.1,-0.08 0.02,-0.04 0.03,-0.08 0.03,-0.14 0,-0.06 -0.02,-0.12 -0.04,-0.19 -0.03,-0.08 -0.07,-0.16 -0.12,-0.26 -0.1,-0.18 -0.2,-0.31 -0.29,-0.36 -0.09,-0.06 -0.17,-0.07 -0.25,-0.03 l -1.79,0.97 -2.09,-3.88 c -0.26,-0.48 -0.39,-0.88 -0.38,-1.2 0.01,-0.33 0.2,-0.59 0.56,-0.78 0.12,-0.07 0.24,-0.11 0.34,-0.14 0.11,-0.03 0.2,-0.05 0.29,-0.06 0.08,-0.01 0.16,-0.02 0.22,-0.03 0.07,0 0.12,-0.01 0.16,-0.04 0.03,-0.01 0.05,-0.03 0.06,-0.06 0.02,-0.02 0.02,-0.06 0.02,-0.1 -0.01,-0.04 -0.02,-0.1 -0.05,-0.16 -0.02,-0.07 -0.06,-0.15 -0.11,-0.24 z m 8.98,-4.86 c -0.08,-0.15 -0.16,-0.26 -0.23,-0.33 -0.06,-0.08 -0.13,-0.13 -0.19,-0.15 -0.07,-0.02 -0.15,-0.02 -0.25,-0.01 -0.1,0.01 -0.21,0.03 -0.33,0.06 -0.12,0.03 -0.24,0.08 -0.37,0.12 -0.13,0.05 -0.25,0.11 -0.37,0.17 -0.36,0.2 -0.64,0.41 -0.85,0.65 -0.21,0.23 -0.34,0.49 -0.4,0.77 -0.06,0.29 -0.05,0.6 0.04,0.93 0.08,0.34 0.24,0.71 0.45,1.11 l 2.2,4.07 -0.97,0.52 c -0.08,0.05 -0.12,0.12 -0.12,0.23 0,0.11 0.05,0.25 0.15,0.44 0.05,0.1 0.1,0.17 0.15,0.23 0.05,0.06 0.1,0.11 0.14,0.14 0.04,0.04 0.09,0.05 0.13,0.05 0.04,0 0.09,-0.01 0.13,-0.03 l 0.96,-0.52 0.9,1.65 c 0.02,0.04 0.05,0.07 0.08,0.09 0.03,0.02 0.08,0.03 0.14,0.02 0.07,0 0.14,-0.02 0.23,-0.05 0.09,-0.04 0.19,-0.09 0.32,-0.15 0.13,-0.07 0.23,-0.14 0.3,-0.19 0.08,-0.06 0.14,-0.11 0.17,-0.16 0.03,-0.04 0.05,-0.09 0.06,-0.13 0,-0.04 -0.01,-0.08 -0.03,-0.12 l -0.89,-1.65 1.79,-0.97 c 0.04,-0.02 0.07,-0.05 0.09,-0.08 0.02,-0.04 0.03,-0.08 0.03,-0.14 0,-0.06 -0.01,-0.12 -0.04,-0.19 -0.03,-0.08 -0.06,-0.16 -0.12,-0.26 -0.1,-0.19 -0.19,-0.31 -0.28,-0.36 -0.1,-0.06 -0.18,-0.07 -0.26,-0.03 l -1.78,0.97 -2.1,-3.88 c -0.26,-0.48 -0.39,-0.88 -0.38,-1.2 0.01,-0.33 0.2,-0.59 0.57,-0.78 0.12,-0.07 0.23,-0.11 0.33,-0.14 0.11,-0.03 0.2,-0.05 0.29,-0.06 0.09,-0.01 0.16,-0.02 0.23,-0.03 0.06,0 0.11,-0.02 0.15,-0.04 0.03,-0.01 0.05,-0.03 0.07,-0.06 0.01,-0.02 0.02,-0.06 0.01,-0.1 -0.01,-0.04 -0.02,-0.1 -0.04,-0.17 -0.03,-0.06 -0.06,-0.14 -0.11,-0.24 z m 9.67,-1.29 c -0.31,-0.57 -0.66,-1.05 -1.07,-1.44 -0.41,-0.4 -0.85,-0.69 -1.34,-0.87 -0.48,-0.19 -1,-0.26 -1.55,-0.21 -0.55,0.05 -1.12,0.23 -1.7,0.55 -0.58,0.31 -1.03,0.66 -1.36,1.06 -0.34,0.4 -0.56,0.84 -0.66,1.32 -0.11,0.48 -0.11,0.99 0,1.52 0.11,0.54 0.33,1.11 0.64,1.69 0.31,0.57 0.67,1.05 1.07,1.45 0.41,0.4 0.85,0.69 1.33,0.87 0.49,0.19 1,0.26 1.55,0.21 0.54,-0.05 1.11,-0.23 1.71,-0.56 0.57,-0.3 1.02,-0.66 1.35,-1.06 0.34,-0.4 0.56,-0.84 0.67,-1.32 0.1,-0.47 0.1,-0.98 -0.01,-1.52 -0.1,-0.54 -0.32,-1.11 -0.63,-1.69 z m -1.37,0.63 c 0.2,0.38 0.36,0.75 0.47,1.13 0.11,0.37 0.16,0.72 0.13,1.06 -0.02,0.34 -0.13,0.66 -0.33,0.96 -0.2,0.29 -0.5,0.55 -0.91,0.78 -0.38,0.2 -0.74,0.31 -1.09,0.32 -0.34,0.02 -0.67,-0.05 -0.98,-0.2 -0.31,-0.15 -0.6,-0.37 -0.86,-0.66 -0.27,-0.29 -0.51,-0.63 -0.73,-1.03 -0.2,-0.38 -0.36,-0.75 -0.47,-1.13 -0.11,-0.37 -0.15,-0.73 -0.13,-1.06 0.03,-0.34 0.15,-0.66 0.34,-0.96 0.2,-0.29 0.5,-0.55 0.91,-0.77 0.38,-0.21 0.74,-0.31 1.09,-0.33 0.34,-0.01 0.67,0.05 0.98,0.2 0.31,0.15 0.59,0.36 0.86,0.65 0.26,0.29 0.5,0.64 0.72,1.04 z m 10.9,-10.37 c -0.03,-0.05 -0.06,-0.07 -0.09,-0.09 -0.04,-0.02 -0.08,-0.03 -0.14,-0.02 -0.06,0 -0.13,0.02 -0.22,0.06 -0.09,0.03 -0.19,0.08 -0.32,0.15 -0.13,0.07 -0.23,0.13 -0.31,0.19 -0.07,0.05 -0.13,0.1 -0.17,0.15 -0.03,0.04 -0.05,0.08 -0.06,0.12 0,0.04 0.01,0.08 0.03,0.13 l 2.2,4.07 c 0.22,0.4 0.36,0.73 0.43,1.01 0.07,0.27 0.09,0.53 0.07,0.77 -0.03,0.24 -0.11,0.46 -0.25,0.65 -0.14,0.2 -0.33,0.36 -0.58,0.49 -0.31,0.18 -0.7,0.24 -1.14,0.18 -0.44,-0.05 -0.95,-0.2 -1.54,-0.45 l -2.63,-4.86 c -0.02,-0.05 -0.05,-0.07 -0.09,-0.09 -0.03,-0.02 -0.08,-0.03 -0.14,-0.02 -0.06,0 -0.13,0.02 -0.22,0.06 -0.09,0.03 -0.19,0.08 -0.32,0.15 -0.13,0.07 -0.23,0.13 -0.3,0.19 -0.08,0.05 -0.14,0.1 -0.18,0.15 -0.03,0.05 -0.05,0.09 -0.06,0.13 0,0.03 0.01,0.07 0.03,0.12 l 5.59,10.32 c 0.02,0.05 0.05,0.08 0.08,0.1 0.04,0.02 0.08,0.03 0.15,0.02 0.06,0 0.13,-0.02 0.22,-0.06 0.09,-0.03 0.19,-0.08 0.31,-0.15 0.13,-0.07 0.24,-0.13 0.31,-0.19 0.08,-0.05 0.14,-0.1 0.17,-0.15 0.04,-0.04 0.06,-0.09 0.06,-0.13 0,-0.04 0,-0.08 -0.03,-0.13 L 607.22,138 c 0.57,0.19 1.1,0.27 1.57,0.26 0.47,-0.01 0.9,-0.12 1.28,-0.32 0.46,-0.25 0.81,-0.54 1.04,-0.87 0.23,-0.33 0.37,-0.68 0.43,-1.05 0.05,-0.37 0.03,-0.75 -0.08,-1.15 -0.11,-0.4 -0.29,-0.85 -0.56,-1.35 z m 10.32,-0.7 c -0.1,-0.2 -0.23,-0.32 -0.38,-0.35 -0.15,-0.03 -0.28,-0.01 -0.41,0.06 l -4.59,2.48 c -0.21,-0.39 -0.35,-0.76 -0.44,-1.11 -0.09,-0.35 -0.11,-0.69 -0.05,-1.01 0.07,-0.32 0.21,-0.61 0.43,-0.89 0.23,-0.27 0.55,-0.53 0.97,-0.75 0.33,-0.18 0.64,-0.31 0.93,-0.4 0.29,-0.09 0.55,-0.15 0.77,-0.18 0.23,-0.04 0.42,-0.06 0.57,-0.07 0.15,-0.01 0.25,-0.04 0.32,-0.07 0.03,-0.02 0.06,-0.05 0.08,-0.08 0.02,-0.03 0.03,-0.07 0.02,-0.12 0,-0.04 -0.02,-0.1 -0.04,-0.17 -0.03,-0.06 -0.07,-0.14 -0.12,-0.24 -0.04,-0.06 -0.07,-0.12 -0.1,-0.17 -0.03,-0.04 -0.06,-0.08 -0.09,-0.12 -0.03,-0.03 -0.06,-0.06 -0.1,-0.08 -0.03,-0.02 -0.07,-0.04 -0.12,-0.05 -0.04,-0.02 -0.15,-0.02 -0.32,-0.01 -0.18,0.01 -0.39,0.05 -0.65,0.11 -0.25,0.05 -0.54,0.14 -0.85,0.25 -0.32,0.1 -0.65,0.25 -0.98,0.43 -0.57,0.31 -1.03,0.66 -1.37,1.05 -0.34,0.39 -0.58,0.82 -0.7,1.3 -0.13,0.47 -0.13,0.99 -0.03,1.54 0.11,0.56 0.33,1.15 0.67,1.78 0.33,0.59 0.69,1.09 1.11,1.48 0.41,0.4 0.85,0.68 1.32,0.85 0.47,0.18 0.96,0.24 1.47,0.2 0.51,-0.05 1.02,-0.21 1.53,-0.48 0.54,-0.3 0.96,-0.64 1.25,-1.02 0.29,-0.38 0.48,-0.79 0.57,-1.22 0.08,-0.43 0.08,-0.87 -0.02,-1.34 -0.1,-0.46 -0.28,-0.92 -0.52,-1.37 z m -1.07,1.07 c 0.37,0.66 0.51,1.27 0.4,1.82 -0.11,0.55 -0.47,0.99 -1.09,1.33 -0.31,0.17 -0.62,0.26 -0.92,0.27 -0.31,0.01 -0.59,-0.04 -0.86,-0.15 -0.27,-0.11 -0.51,-0.27 -0.74,-0.48 -0.23,-0.21 -0.43,-0.46 -0.59,-0.74 z m 6.25,-8.76 c -0.04,-0.07 -0.08,-0.1 -0.14,-0.11 -0.06,-0.01 -0.13,0 -0.21,0.02 -0.08,0.03 -0.19,0.07 -0.33,0.15 -0.13,0.07 -0.23,0.14 -0.31,0.2 -0.07,0.06 -0.11,0.11 -0.13,0.16 -0.02,0.05 -0.01,0.11 0.02,0.17 l 0.38,0.69 c -0.48,-0.16 -0.96,-0.23 -1.43,-0.2 -0.47,0.02 -0.92,0.14 -1.33,0.37 -0.37,0.2 -0.68,0.42 -0.92,0.68 -0.24,0.25 -0.42,0.53 -0.53,0.82 -0.12,0.29 -0.16,0.6 -0.13,0.93 0.02,0.32 0.13,0.65 0.31,0.99 0.21,0.39 0.47,0.69 0.79,0.89 0.32,0.2 0.68,0.32 1.08,0.35 0.4,0.03 0.84,-0.03 1.33,-0.17 0.48,-0.14 0.99,-0.35 1.54,-0.64 l 0.95,-0.52 0.3,0.54 c 0.14,0.27 0.24,0.52 0.3,0.76 0.05,0.23 0.05,0.45 0,0.66 -0.05,0.2 -0.16,0.4 -0.32,0.57 -0.17,0.18 -0.4,0.35 -0.69,0.51 -0.31,0.17 -0.62,0.28 -0.91,0.35 -0.29,0.06 -0.55,0.09 -0.79,0.1 -0.23,0.01 -0.44,0.02 -0.6,0.01 -0.17,-0.01 -0.28,0.01 -0.35,0.04 -0.04,0.02 -0.07,0.05 -0.09,0.09 -0.02,0.04 -0.03,0.08 -0.03,0.14 0,0.05 0.01,0.11 0.04,0.18 0.02,0.07 0.05,0.15 0.1,0.22 0.07,0.13 0.13,0.23 0.19,0.29 0.06,0.07 0.14,0.12 0.25,0.15 0.1,0.03 0.26,0.04 0.48,0.04 0.22,0 0.46,-0.03 0.72,-0.07 0.27,-0.05 0.54,-0.12 0.83,-0.21 0.29,-0.09 0.57,-0.21 0.84,-0.36 0.5,-0.27 0.89,-0.55 1.18,-0.86 0.29,-0.3 0.48,-0.62 0.58,-0.96 0.1,-0.33 0.11,-0.69 0.03,-1.07 -0.08,-0.37 -0.23,-0.78 -0.47,-1.21 z m 0.45,3.86 -1.09,0.59 c -0.35,0.19 -0.67,0.32 -0.96,0.4 -0.29,0.08 -0.55,0.11 -0.79,0.09 -0.23,-0.03 -0.43,-0.1 -0.6,-0.22 -0.17,-0.12 -0.31,-0.28 -0.42,-0.49 -0.2,-0.37 -0.24,-0.71 -0.12,-1.05 0.11,-0.34 0.37,-0.62 0.79,-0.84 0.33,-0.19 0.69,-0.27 1.07,-0.25 0.37,0.01 0.82,0.11 1.32,0.29 z m 5.7,-6.52 c -0.08,-0.15 -0.16,-0.26 -0.22,-0.34 -0.07,-0.08 -0.14,-0.12 -0.2,-0.14 -0.07,-0.02 -0.15,-0.03 -0.25,-0.02 -0.1,0.01 -0.21,0.03 -0.33,0.06 -0.12,0.04 -0.24,0.08 -0.37,0.13 -0.12,0.05 -0.25,0.1 -0.37,0.17 -0.36,0.19 -0.64,0.41 -0.85,0.64 -0.2,0.24 -0.34,0.5 -0.4,0.78 -0.06,0.28 -0.04,0.59 0.04,0.93 0.09,0.33 0.24,0.7 0.46,1.11 l 2.19,4.06 -0.97,0.53 c -0.08,0.04 -0.12,0.12 -0.12,0.22 0,0.11 0.05,0.26 0.15,0.44 0.05,0.1 0.1,0.18 0.15,0.24 0.05,0.06 0.1,0.11 0.14,0.14 0.05,0.03 0.09,0.05 0.13,0.05 0.05,0 0.09,-0.01 0.13,-0.04 l 0.97,-0.52 0.89,1.66 c 0.02,0.03 0.05,0.06 0.08,0.08 0.04,0.02 0.09,0.03 0.15,0.03 0.06,0 0.13,-0.02 0.22,-0.06 0.09,-0.03 0.19,-0.08 0.32,-0.15 0.13,-0.07 0.23,-0.13 0.31,-0.19 0.07,-0.05 0.13,-0.1 0.16,-0.15 0.04,-0.05 0.06,-0.09 0.06,-0.14 0,-0.04 0,-0.08 -0.02,-0.11 l -0.9,-1.66 1.79,-0.96 c 0.04,-0.03 0.07,-0.05 0.09,-0.09 0.02,-0.03 0.03,-0.08 0.03,-0.14 0,-0.05 -0.01,-0.12 -0.04,-0.19 -0.02,-0.07 -0.06,-0.16 -0.12,-0.26 -0.1,-0.18 -0.19,-0.3 -0.28,-0.36 -0.09,-0.06 -0.18,-0.06 -0.25,-0.02 l -1.79,0.96 -2.1,-3.88 c -0.26,-0.48 -0.38,-0.88 -0.37,-1.2 0.01,-0.32 0.19,-0.58 0.56,-0.78 0.12,-0.06 0.23,-0.11 0.34,-0.14 0.1,-0.02 0.2,-0.04 0.28,-0.06 0.09,-0.01 0.16,-0.02 0.23,-0.02 0.06,-0.01 0.11,-0.02 0.16,-0.04 0.02,-0.02 0.04,-0.04 0.06,-0.06 0.02,-0.03 0.02,-0.06 0.01,-0.1 0,-0.05 -0.02,-0.1 -0.04,-0.17 -0.02,-0.07 -0.06,-0.15 -0.11,-0.24 z"
           style="fill:#ffffff;fill-opacity:1;fill-rule:nonzero;stroke:none"
           id="path1040" /></g></g></g></svg>
